<?xml version="1.0" standalone="no"?> <!DOCTYPE svg PUBLIC "-//W3C//DTD SVG 1.0//EN" "http://www.w3.org/TR/2001/REC-SVG-20010904/DTD/svg10.dtd" > <svg xmlns="http://www.w3.org/2000/svg" width="100%" height="100%">
<defs >
<font horiz-adv-x="441" ><font-face
    font-family=""
    units-per-em="1000"
    panose-1="2 0 5 3 0 0 0 2 0 3"
    ascent="726"
    descent="-274"
    alphabetic="0" />
<missing-glyph horiz-adv-x="308" />
<glyph unicode=" " glyph-name="space" horiz-adv-x="219" />
<glyph unicode="!" glyph-name="exclam" horiz-adv-x="285" d="M182 213H144Q116 605 116 642Q116 699 165 699Q212 699 212 643Q212 624 182 213ZM222 54Q222 25 206 8T162 -10Q136 -10 119 7T101 51Q101 78 118 96T161 114Q188 114 205 97T222 54Z" />
<glyph unicode="&quot;" glyph-name="quotedbl" horiz-adv-x="303" d="M96 432H59Q37 624 37 663Q37 711 79 711Q120 711 120 663Q120 643 96 432ZM243 432H206Q184 635 184 663Q184 711 226 711Q267 711 267 663Q267 643 243 432Z" />
<glyph unicode="#" glyph-name="numbersign" horiz-adv-x="556" d="M143 -13H102L145 211H45V281H160L184 399H87V470H196L236 670H280L239 470H367L408 670H449L410 470H510V399H397L373 281H465V211H359L316 -13H273L317 211H188L143 -13ZM201 281H331L354 399H225L201
281Z" />
<glyph unicode="$" glyph-name="dollar" horiz-adv-x="545" d="M303 -115H256V-1Q174 1 123 26Q93 41 82 63T71 120Q71 138 73 186H118Q126 118 157 89Q184 61 256 56V301L205 323Q84 374 84 482Q84 550 127 597T256 657V764H303V661H309Q380 661 433 639Q467
624 467 583Q467 553 459 491H415Q409 561 384 581Q359 600 303 603V365L368 338Q487 288 487 180Q487 103 438 56T303 1V-115ZM322 274L303 282V57Q357 63 385 93T413 163Q413 202 392 227T322 274ZM158 496Q158 459 178 434T256 384V600Q206 593 182 564T158
496Z" />
<glyph unicode="%" glyph-name="percent" horiz-adv-x="825" d="M339 463Q339 351 297 298T185 244Q106 244 69 296T32 454Q32 557 73 612T190 668Q270 668 304 616T339 463ZM278 459Q278 545 256 582T187 620Q93 620 93 462Q93 292 186 292Q231 292 254 335T278
459ZM539 675L581 658L292 -10L250 9L539 675ZM793 210Q793 98 751 45T640 -8Q561 -8 524 44T486 202Q486 305 527 360T644 416Q724 416 758 364T793 210ZM732 206Q732 292 710 330T642 368Q547 368 547 209Q547 119 570 80T641 40Q732 40 732 206Z" />
<glyph unicode="&amp;" glyph-name="ampersand" horiz-adv-x="747" d="M711 50V-7Q685 -9 672 -9Q562 -9 483 59Q397 -13 280 -13Q176 -13 114 42T51 180Q51 251 89 297T209 381Q160 460 160 530Q160 598 206 644T342 691Q414 691 454 654T494 556Q494 492 448
449T304 364Q364 267 491 151Q521 183 551 255Q560 278 560 298Q560 317 536 322Q524 325 480 327V374Q538 372 592 372T712 374V327Q661 326 646 311Q637 302 613 248Q574 162 532 116Q559 90 604 70T690 49Q704 49 711 50ZM278 411Q429 467 429 551Q429 590 406
612T339 634Q283 634 258 605T232 533Q232 477 278 411ZM238 331Q129 286 129 193Q129 133 171 91T293 48Q376 48 436 98Q384 147 327 214T238 331Z" />
<glyph unicode="&apos;" glyph-name="quotesingle" horiz-adv-x="156" d="M96 432H59Q37 624 37 663Q37 711 79 711Q120 711 120 663Q120 643 96 432Z" />
<glyph unicode="(" glyph-name="parenleft" horiz-adv-x="307" d="M299 -162L274 -190Q164 -111 103 11T41 290Q41 451 99 568T272 775L299 747Q204 652 158 551T112 290Q112 145 161 38T299 -162Z" />
<glyph unicode=")" glyph-name="parenright" horiz-adv-x="307" d="M7 747L33 775Q142 696 203 574T265 296Q265 135 208 18T35 -190L8 -161Q102 -66 148 35T194 296Q194 441 145 548T7 747Z" />
<glyph unicode="*" glyph-name="asterisk" horiz-adv-x="403" d="M236 662Q236 634 217 539Q308 599 331 599Q364 599 364 564Q364 533 330 527Q282 518 222 510Q281 461 299 441T317 401Q317 387 305 378T281 368Q259 368 246 390T200 495Q168 413 153 391T116
368Q106 368 95 378T84 402Q84 418 103 441T180 512Q112 521 74 528Q55 532 47 539T39 562Q39 578 48 590T74 602Q92 602 191 539Q166 635 166 662Q166 698 201 698T236 662Z" />
<glyph unicode="+" glyph-name="plus" horiz-adv-x="585" d="M322 65H262V278H68V341H262V555H322V341H515V278H322V65Z" />
<glyph unicode="," glyph-name="comma" horiz-adv-x="215" d="M32 -182L12 -148Q109 -86 109 -26Q109 0 87 6Q67 13 56 24T45 60Q45 83 63 98T106 114Q141 114 161 91T181 27Q181 -96 32 -182Z" />
<glyph unicode="-" glyph-name="hyphen" horiz-adv-x="264" d="M233 278V213H28V278H233Z" />
<glyph unicode="." glyph-name="period" horiz-adv-x="212" d="M167 54Q167 25 150 8T106 -10Q80 -10 63 7T45 51Q45 78 62 96T105 114Q131 114 149 97T167 54Z" />
<glyph unicode="/" glyph-name="slash" horiz-adv-x="336" d="M309 716L70 -81L19 -65L258 731L309 716Z" />
<glyph unicode="0" glyph-name="zero" horiz-adv-x="535" d="M495 339Q495 154 433 70T267 -14Q150 -14 95 69T40 325Q40 494 100 582T273 670Q392 670 443 587T495 339ZM420 332Q420 483 384 546T271 610Q194 610 155 541T115 339Q115 181 153 114T269 47Q342
47 381 120T420 332Z" />
<glyph unicode="1" glyph-name="one" horiz-adv-x="535" d="M420 -1Q336 1 270 1Q219 1 133 -1V45Q220 49 230 61Q240 71 240 112V404Q240 519 236 552Q233 577 212 577T129 558L117 597Q161 624 244 662Q267 671 284 671Q314 671 314 628Q314 611 314 534T313
402V112Q313 73 321 62Q330 49 420 45V-1Z" />
<glyph unicode="2" glyph-name="two" horiz-adv-x="535" d="M486 151Q483 81 475 37Q469 0 413 0H31V47Q202 184 286 285T371 476Q371 610 242 610Q168 610 138 576Q124 559 117 499H77Q68 558 68 577Q68 602 78 616T114 644Q166 670 252 670Q349 670 399 623T450
487Q450 296 142 69Q165 69 228 69T306 70Q400 70 417 88Q432 104 446 151H486Z" />
<glyph unicode="3" glyph-name="three" horiz-adv-x="535" d="M68 156H111Q115 102 134 83Q166 47 242 47Q321 47 360 82T400 180Q400 234 361 269T239 310Q216 312 168 312V366Q221 368 237 371Q303 381 338 418T373 503Q373 549 347 580T260 611Q182 611 155
582Q140 566 132 505H91Q84 547 84 577Q84 601 93 615T127 642Q183 670 264 670Q357 670 402 627T448 512Q448 452 410 408T296 346Q383 340 429 298T475 181Q475 88 413 37T239 -14Q160 -14 108 7Q61 26 61 73Q61 109 68 156Z" />
<glyph unicode="4" glyph-name="four" horiz-adv-x="535" d="M506 -1Q424 1 364 1Q327 1 243 -1V41Q321 48 330 61T339 121V178H39V219L320 637Q342 671 375 671Q411 671 411 622Q411 600 411 550T410 483V242H510V179H410V120Q410 74 418 61Q428 46 506 41V-1ZM339
239Q339 415 343 577L116 239H339Z" />
<glyph unicode="5" glyph-name="five" horiz-adv-x="535" d="M64 155H108Q112 100 130 80Q160 46 235 46Q318 46 359 89T400 202Q400 269 361 310T239 351Q210 351 177 341Q149 333 134 333Q102 333 102 368Q102 382 104 406L127 654H450V584H177L160 400Q214
416 268 416Q362 416 418 365T475 212Q475 109 411 48T234 -14Q155 -14 105 7Q58 27 58 72Q58 114 64 155Z" />
<glyph unicode="6" glyph-name="six" horiz-adv-x="535" d="M131 339Q152 372 199 394T297 417Q385 417 437 362T490 219Q490 109 429 48T274 -14Q173 -14 114 60T55 285Q55 478 126 574T329 670Q391 670 426 657Q472 641 472 598Q472 557 465 515H422Q416 572
400 588Q378 609 324 609Q144 609 131 339ZM132 274Q132 221 134 203Q143 131 178 89T276 46T377 87T415 205Q415 278 379 315T278 353Q181 353 132 274Z" />
<glyph unicode="7" glyph-name="seven" horiz-adv-x="535" d="M51 493Q44 563 44 603Q44 627 56 640T103 654H488V611L227 -2Q217 -25 196 -25Q159 -25 159 2Q159 11 164 23L409 584H247Q143 584 128 580Q111 576 104 557T91 493H51Z" />
<glyph unicode="8" glyph-name="eight" horiz-adv-x="535" d="M193 338Q78 404 78 502Q78 576 130 623T276 670Q365 670 413 627T462 512Q462 461 433 421T337 345Q421 308 451 267T481 166Q481 87 421 36T263 -15Q167 -15 110 32T52 160Q52 276 193 338ZM238
311Q174 274 149 243T124 165Q124 110 164 78T266 45Q330 45 367 76T404 160Q404 210 368 240T238 311ZM288 372Q390 434 390 507Q390 555 360 583T276 611Q220 611 186 585T152 513Q152 471 183 438T288 372Z" />
<glyph unicode="9" glyph-name="nine" horiz-adv-x="535" d="M403 321Q381 289 335 267T237 244Q149 244 98 297T46 439Q46 548 108 609T265 670Q366 670 422 596T479 372Q479 -14 210 -14Q165 -14 111 1Q62 16 62 66Q62 104 67 146H111Q115 93 134 72Q156 47
216 47Q389 47 403 321ZM402 385Q402 438 400 455Q381 610 256 610Q194 610 157 569T120 452Q120 380 155 344T256 308Q354 308 402 385Z" />
<glyph unicode=":" glyph-name="colon" horiz-adv-x="233" d="M188 54Q188 25 171 8T127 -10Q101 -10 84 7T66 51Q66 78 83 96T126 114Q152 114 170 97T188 54ZM188 381Q188 352 171 335T127 317Q101 317 84 334T66 378Q66 405 83 423T126 441Q153 441 170 425T188 381Z" />
<glyph unicode=";" glyph-name="semicolon" horiz-adv-x="234" d="M188 381Q188 352 171 335T127 317Q101 317 84 334T66 378Q66 405 83 423T126 441Q153 441 170 425T188 381ZM53 -182L33 -148Q130 -85 130 -26Q130 0 108 6Q88 13 77 24T66 60Q66 83 84 98T127
114Q162 114 182 91T202 27Q202 -96 53 -182Z" />
<glyph unicode="&lt;" glyph-name="less" horiz-adv-x="585" d="M468 71L91 275V344L468 549V477L154 310L468 146V71Z" />
<glyph unicode="=" glyph-name="equal" horiz-adv-x="585" d="M517 196H66V259H517V196ZM517 370H66V432H517V370Z" />
<glyph unicode="&gt;" glyph-name="greater" horiz-adv-x="585" d="M116 549L491 346V279L116 71V145L430 311L116 474V549Z" />
<glyph unicode="?" glyph-name="question" horiz-adv-x="414" d="M205 212H166Q158 275 158 311Q158 336 172 352T216 384Q317 437 317 528Q317 638 218 639Q155 639 134 622Q115 607 114 549H70Q61 596 61 622Q61 663 111 680Q161 696 221 696Q308 695 352 654T397
535Q397 475 363 428T245 337Q215 322 210 282Q206 255 205 212ZM251 54Q251 25 235 8T191 -10Q165 -10 148 7T130 51Q130 78 147 96T190 114Q216 114 233 97T251 54Z" />
<glyph unicode="@" glyph-name="at" horiz-adv-x="784" d="M734 -15Q592 -140 400 -140Q239 -140 138 -46T36 204Q36 378 150 503T447 628Q529 628 590 603T685 537T734 453T750 366Q750 276 721 214T630 97Q607 77 574 62T517 47Q459 47 459 100Q459 117 460
122Q388 47 310 47Q193 47 193 184Q193 239 222 303T299 409Q335 440 365 452T443 465Q493 465 533 441L548 474H597L542 269Q518 182 518 133Q518 107 541 107Q571 107 608 142Q646 176 669 234T693 361Q693 461 624 521T446 581Q294 581 195 473T96 200Q96 71
183 -7T404 -86Q577 -86 706 22L734 -15ZM461 167Q464 183 481 252L518 393Q478 414 430 414Q379 414 338 377Q303 345 280 291T256 185Q256 101 328 101Q358 101 395 121T461 167Z" />
<glyph unicode="A" glyph-name="A" horiz-adv-x="701" d="M255 -1Q191 1 123 1Q67 1 5 -1V46Q59 49 75 62Q89 71 114 140L307 656Q321 693 354 693Q384 693 397 657L595 127Q614 73 631 60Q645 48 696 46V-1Q626 1 567 1Q502 1 432 -1V46Q485 49 501 53Q524 59
524 76Q524 98 510 137L469 245H215L177 142Q162 99 162 78Q162 62 174 56Q184 52 255 46V-1ZM233 301H450Q354 561 341 600Q323 546 233 301Z" />
<glyph unicode="B" glyph-name="B" horiz-adv-x="617" d="M37 -1V46Q99 49 112 56Q123 61 126 70T129 117V558Q129 605 122 615Q113 626 37 631V677H212Q317 677 381 669Q528 647 528 519Q528 460 494 419T395 361Q479 351 522 308T565 196Q565 83 470 32Q411
-1 309 -1Q290 -1 240 0T162 1Q109 1 37 -1ZM203 382H253Q329 382 357 390Q447 417 447 507Q447 546 425 573T366 610Q330 619 254 619H203V382ZM203 326V91Q203 73 208 67T231 56Q248 53 302 53Q390 53 435 88T481 192Q481 229 463 258T417 302Q370 326 255 326H203Z"
/>
<glyph unicode="C" glyph-name="C" horiz-adv-x="670" d="M615 166Q613 99 604 64Q592 23 543 8Q475 -14 383 -14Q234 -14 143 75T51 326Q51 495 147 593T403 692Q500 692 561 669Q608 652 608 611Q608 566 599 507H555Q550 578 532 597Q499 630 395 630Q280 630
205 553T129 336Q129 192 204 120T395 48Q489 48 530 83Q551 101 571 166H615Z" />
<glyph unicode="D" glyph-name="D" horiz-adv-x="715" d="M37 0V46Q112 50 122 61Q129 70 129 120V555Q129 600 125 611Q120 621 104 624T37 631V676H199Q350 676 422 665T543 622Q664 547 664 351Q664 150 538 61Q493 29 431 15T268 0H37ZM203 98Q203 81 208
75T231 64Q260 58 320 58Q449 58 517 131T585 346Q585 525 465 584Q395 618 269 618H203V98Z" />
<glyph unicode="E" glyph-name="E" horiz-adv-x="591" d="M553 172Q551 71 536 28Q527 0 460 0H37V46Q108 50 120 62Q129 71 129 126V555Q129 606 123 614Q115 626 37 631V676H455Q490 676 502 664T515 628Q515 583 508 518H464Q456 590 439 603Q419 618 313 618H203V379H282Q326
379 342 382T367 396Q382 412 385 458H428Q427 432 427 354Q427 287 428 246H388Q383 290 369 309Q361 319 343 321T280 324H203V103Q203 64 231 61Q264 57 326 57Q447 57 472 84Q491 105 511 172H553Z" />
<glyph unicode="F" glyph-name="F" horiz-adv-x="574" d="M316 -1Q230 1 167 1Q121 1 37 -1V46Q111 51 122 63Q129 70 129 126V555Q129 606 123 614Q115 626 37 631V676H465Q500 676 512 664T524 628Q524 583 517 518H473Q464 590 447 603Q425 618 325 618H203V368H295Q337
368 353 371T379 386Q394 404 397 448H440Q439 423 439 344Q439 276 440 235H400Q393 282 381 299Q373 309 356 311T293 314H203V128Q203 80 214 65Q223 53 316 46V-1Z" />
<glyph unicode="G" glyph-name="G" horiz-adv-x="709" d="M679 263Q627 262 618 249Q612 242 612 199V71Q612 29 577 17Q489 -15 380 -15Q232 -15 142 74T51 326Q51 494 149 593T406 692Q505 692 573 668Q620 652 620 610Q620 564 610 506H565Q560 577 542 596Q511
630 401 630Q284 630 207 554T129 336Q129 191 204 120T396 48Q450 48 494 58Q514 62 529 74Q538 82 538 118V199Q538 243 529 251Q519 260 444 263V311Q531 308 571 308Q630 308 679 311V263Z" />
<glyph unicode="H" glyph-name="H" horiz-adv-x="750" d="M296 -1Q210 1 164 1Q121 1 37 -1V46Q113 51 122 63Q129 71 129 126V554Q129 605 122 614Q114 625 37 631V677L160 674Q167 674 296 677V631Q219 625 210 613Q203 602 203 555V382H546V554Q546 605 539
614Q530 625 454 631V677Q468 677 497 676T546 675T577 674Q584 674 713 677V631Q636 625 627 613Q620 604 620 555V127Q620 71 627 64Q637 51 713 46V-1Q627 1 582 1Q538 1 454 -1V46Q530 51 539 63Q546 71 546 126V325H203V127Q203 72 210 64Q220 51 296 46V-1Z"
/>
<glyph unicode="I" glyph-name="I" horiz-adv-x="333" d="M296 -1Q210 1 165 1Q121 1 37 -1V46Q112 51 122 63Q129 70 129 126V554Q129 605 122 614Q114 625 37 631V677Q151 674 161 674Q167 674 296 677V631Q219 625 210 613Q203 602 203 555V127Q203 73 210
65Q220 51 296 46V-1Z" />
<glyph unicode="J" glyph-name="J" horiz-adv-x="314" d="M16 -157L-7 -111Q91 -59 109 11Q124 74 124 165V554Q124 605 117 614Q110 624 29 631V677Q146 674 156 674Q160 674 289 677V631Q214 625 205 613Q198 602 198 555V167Q198 36 173 -23Q156 -62 114 -97T16 -157Z" />
<glyph unicode="K" glyph-name="K" horiz-adv-x="661" d="M299 -1Q213 1 164 1Q121 1 37 -1V46Q43 46 54 47Q111 51 120 59Q121 60 122 61Q129 70 129 125V555Q129 606 122 615T37 631V677L160 674Q170 674 299 677V631Q218 625 210 614Q203 603 203 555V125Q203
72 210 62Q220 50 299 46V-1ZM651 0Q636 -4 602 -4Q531 -4 483 35Q441 69 358 168T220 345Q290 409 429 558Q461 594 461 611Q461 620 447 624T391 631V677Q436 675 521 675Q593 675 637 677V631Q596 628 585 622Q560 611 511 560Q505 554 454 503T360 408T304
353Q356 285 428 203T536 90Q566 66 593 55Q618 45 651 45V0Z" />
<glyph unicode="L" glyph-name="L" horiz-adv-x="591" d="M552 175Q550 76 533 28Q524 0 459 0H37V46Q108 50 120 62Q129 71 129 126V556Q129 606 122 615Q112 626 37 631V677Q151 674 161 674Q174 674 300 677V631Q219 625 210 613Q203 602 203 555V103Q203 65
231 61Q266 57 326 57Q446 57 471 84Q493 107 511 175H552Z" />
<glyph unicode="M" glyph-name="M" horiz-adv-x="875" d="M284 -1Q200 1 168 1Q135 1 35 -1V45Q102 48 114 60Q127 73 128 143Q136 556 136 579Q136 610 129 617Q117 628 42 631V677Q87 675 153 675Q214 675 232 677Q384 333 434 204Q475 305 645 677Q699 675
736 675Q802 675 832 677V631Q753 627 744 614Q736 604 736 559Q736 509 738 139Q738 75 746 65Q753 57 768 53T836 45V-1Q744 1 706 1Q687 1 571 -1V45Q645 49 657 64Q663 73 663 114Q663 516 664 584Q630 493 456 121Q446 99 423 99Q402 99 392 122L192 586Q189
163 189 105Q189 69 200 59Q210 49 284 45V-1Z" />
<glyph unicode="N" glyph-name="N" horiz-adv-x="734" d="M290 -1Q182 1 161 1Q135 1 33 -1V45Q114 49 124 65Q128 72 131 150Q133 200 133 527Q133 592 126 604Q117 620 95 625Q65 631 32 631V677Q76 675 140 675Q177 675 212 677Q509 237 577 124Q575 199 573
362T571 527Q568 600 562 612Q554 627 477 631V677Q575 675 603 675Q618 675 724 677V631Q656 626 642 614Q632 603 632 527Q631 432 631 189Q631 165 631 106T632 28Q632 -8 597 -8Q574 -8 560 14L189 579Q189 520 190 418T193 238T194 148Q194 73 203 63Q213
50 290 45V-1Z" />
<glyph unicode="O" glyph-name="O" horiz-adv-x="728" d="M677 349Q677 171 590 79T364 -14Q210 -14 131 80T51 335Q51 500 138 595T370 691Q527 691 602 602T677 349ZM598 342Q598 491 540 560T367 630T191 555T129 349Q129 48 366 48Q477 48 537 124T598 342Z" />
<glyph unicode="P" glyph-name="P" horiz-adv-x="572" d="M298 -1Q212 1 161 1Q125 1 37 -1V46Q107 51 120 61Q129 69 129 124V555Q129 606 121 614Q108 625 37 631V676H212Q333 676 384 668Q540 642 540 490Q540 274 266 274Q225 274 203 275V125Q203 73 210
63Q220 51 298 46V-1ZM203 329Q211 329 227 329T251 328Q286 328 311 330T367 342T416 368T448 414T461 486Q461 539 435 571T365 612Q323 620 257 620H203V329Z" />
<glyph unicode="Q" glyph-name="Q" horiz-adv-x="728" d="M677 349Q677 199 613 109T443 -5Q504 -59 574 -89Q639 -118 733 -118Q752 -118 760 -117V-164Q732 -169 689 -169Q592 -169 531 -144Q455 -114 333 -13Q194 -4 123 89T51 335Q51 500 138 595T370 691Q527
691 602 602T677 349ZM598 342Q598 491 540 560T367 630T191 555T129 349Q129 48 366 48Q477 48 537 124T598 342Z" />
<glyph unicode="R" glyph-name="R" horiz-adv-x="649" d="M636 0Q624 -2 601 -2Q533 -2 483 39Q444 70 406 125T298 295Q286 294 262 294Q241 294 203 296V125Q203 74 210 64Q221 51 296 46V-1Q208 1 161 1Q125 1 37 -1V46Q106 51 120 62Q129 70 129 123V559Q129
606 121 614Q112 625 37 631V676H212Q330 676 383 666Q530 639 530 499Q530 348 374 307Q441 204 472 161T535 91Q565 66 589 56Q609 48 636 46V0ZM203 349Q211 349 230 349T256 348Q297 348 328 354T388 375T434 420T450 495Q450 583 368 608Q327 620 255 620H203V349Z"
/>
<glyph unicode="S" glyph-name="S" horiz-adv-x="553" d="M64 182H107Q118 110 150 82Q187 47 281 47Q353 47 391 80T429 160Q429 202 407 228T329 279L205 333Q79 387 79 502Q79 585 139 638T317 691Q395 691 449 667Q484 652 484 608Q484 575 477 510H435Q423
591 402 609Q375 630 296 630Q224 630 189 598T154 516Q154 475 177 448T268 392L380 346Q506 295 506 179Q506 88 443 37T271 -14Q173 -14 118 15Q84 32 73 55T61 117Q61 144 64 182Z" />
<glyph unicode="T" glyph-name="T" horiz-adv-x="644" d="M455 -1Q377 1 329 1Q272 1 192 -1V46Q270 52 279 65Q285 73 285 128V620Q182 620 155 618T113 605Q93 592 84 511H43Q38 581 38 625Q38 651 49 663T96 676H546Q582 676 594 664T606 627Q606 581 601 511H560Q551
591 532 605Q518 615 490 617T359 620V130Q359 77 365 66Q372 52 455 46V-1Z" />
<glyph unicode="U" glyph-name="U" horiz-adv-x="753" d="M726 631Q646 626 639 609Q634 596 634 545V301Q634 207 622 153T581 63Q519 -15 369 -15Q292 -15 236 10T154 77Q134 110 126 158T118 306Q118 354 119 441T120 555Q120 598 114 610Q104 627 28 631V677Q106
675 160 675Q213 675 291 677V631Q213 626 203 613Q197 604 195 559Q193 488 193 309Q193 180 210 135Q244 48 385 48Q438 48 482 65T544 113Q577 167 577 319Q577 444 573 553Q572 609 562 616Q550 625 480 631V677Q517 676 602 676Q612 676 660 676T726 677V631Z"
/>
<glyph unicode="V" glyph-name="V" horiz-adv-x="700" d="M695 631Q640 629 624 616Q610 605 588 543L393 16Q381 -17 349 -17Q316 -17 304 16L106 553Q87 607 70 620Q60 629 5 631V677Q73 675 140 675Q199 675 269 677V631Q203 628 200 627Q177 623 177 603Q177
586 192 541L359 79L521 537Q536 582 536 602Q536 618 524 623Q513 628 443 631V677Q507 675 569 675Q633 675 695 677V631Z" />
<glyph unicode="W" glyph-name="W" horiz-adv-x="970" d="M954 631Q903 626 891 614Q878 601 865 548L732 21Q723 -17 688 -17Q654 -17 644 19Q530 409 488 571Q444 405 324 21Q312 -17 279 -17Q244 -17 235 19L106 551Q92 610 74 620Q55 630 17 631V677Q40 677
69 677T114 676T143 675Q229 675 269 677V631Q211 630 194 622T177 593Q177 575 184 547Q282 131 290 92Q316 187 453 642Q465 679 496 679Q514 679 523 672T538 644Q665 211 695 91Q721 218 799 538Q806 566 806 591Q806 612 791 620T711 631V677Q809 675 840
675Q880 675 954 677V631Z" />
<glyph unicode="X" glyph-name="X" horiz-adv-x="695" d="M277 -1Q165 1 136 1Q74 1 13 -1V46Q71 46 87 59Q106 73 130 107L304 350L144 576Q120 609 101 621Q88 629 40 631V677Q101 675 179 675Q280 675 313 677V631Q260 629 244 623T228 603Q228 588 245 564L361
398L468 551Q492 585 492 604Q492 617 477 622T411 631V677Q443 675 541 675Q619 675 657 677V631Q607 630 592 618Q577 608 547 565L392 355L569 103Q591 72 609 59Q625 46 681 46V-1Q547 1 544 1Q534 1 410 -1V46Q459 48 475 53T491 73Q491 84 474 107L338 304L213
121Q190 88 190 73T208 53T277 46V-1Z" />
<glyph unicode="Y" glyph-name="Y" horiz-adv-x="612" d="M436 -1Q330 1 310 1Q275 1 177 -1V46Q227 48 241 51T261 62Q267 72 267 113V278L104 550Q68 611 58 617Q40 628 4 631V677Q118 675 124 675Q146 675 248 677V631Q212 630 193 626T170 618T166 604Q166
592 188 553L315 330L448 558Q468 590 468 608Q468 620 452 625T388 631V677Q436 675 513 675Q565 675 607 677V631Q579 630 560 616Q545 604 516 558L342 279V113Q342 72 346 64Q351 55 368 52T436 46V-1Z" />
<glyph unicode="Z" glyph-name="Z" horiz-adv-x="606" d="M571 175Q568 86 557 34Q550 0 495 0H33V28L446 619Q178 619 153 611Q126 603 117 516H72Q64 592 64 630Q64 676 129 676H556V649L144 60Q182 58 295 58Q392 58 428 62T480 79Q504 96 527 175H571Z" />
<glyph unicode="[" glyph-name="bracketleft" horiz-adv-x="295" d="M279 -170H95V755H279V710H160V-125H279V-170Z" />
<glyph unicode="\" glyph-name="backslash" horiz-adv-x="336" d="M269 -81L30 716L81 732L321 -65L269 -81Z" />
<glyph unicode="]" glyph-name="bracketright" horiz-adv-x="295" d="M16 755H200V-170H16V-125H136V710H16V755Z" />
<glyph unicode="^" glyph-name="asciicircum" horiz-adv-x="585" d="M478 370H413L292 635L171 370H105L262 706H327L478 370Z" />
<glyph unicode="_" glyph-name="underscore" horiz-adv-x="491" d="M493 -136H-2V-80H493V-136Z" />
<glyph unicode="`" glyph-name="grave" horiz-adv-x="295" d="M234 548L206 525L91 643Q60 675 60 697Q60 710 72 720T97 730T120 722T146 688L234 548Z" />
<glyph unicode="a" glyph-name="a" horiz-adv-x="510" d="M486 8Q454 -8 413 -8Q356 -8 343 50Q288 -11 203 -11Q140 -11 95 24T49 125Q49 186 98 221T272 256Q320 256 336 254V301Q336 362 322 383Q302 415 232 415Q179 415 155 394Q138 380 135 323H92Q83 370
83 397Q83 438 133 455Q184 473 246 473Q341 473 375 433Q402 402 402 325Q402 315 402 219T401 117Q401 77 411 63T446 49Q463 49 486 54V8ZM336 90V203Q300 205 268 205Q119 205 119 131Q119 87 147 67T216 47Q283 47 336 90Z" />
<glyph unicode="b" glyph-name="b" horiz-adv-x="561" d="M99 21Q100 68 100 150V523Q100 637 87 651Q77 662 48 662Q42 662 18 660V702Q71 731 119 731Q144 731 155 717T167 662Q167 522 166 405Q238 473 331 473Q421 473 467 409T513 235Q513 123 451 55T273
-13Q172 -13 99 21ZM167 66Q204 47 280 47Q359 47 400 97T441 230Q441 308 409 358T299 409Q228 409 167 364V66Z" />
<glyph unicode="c" glyph-name="c" horiz-adv-x="477" d="M451 62Q372 -14 260 -14Q165 -14 107 49T49 222Q49 336 113 404T289 473Q342 473 375 464Q425 451 425 404Q425 370 417 327H373Q368 380 351 397Q332 416 277 416Q201 416 160 365T118 226Q118 147 158
98T276 49Q352 49 423 103L451 62Z" />
<glyph unicode="d" glyph-name="d" horiz-adv-x="582" d="M415 49Q361 -12 261 -12Q164 -12 107 52T49 216Q49 331 112 402T297 473Q366 473 408 449Q408 536 407 579Q405 635 394 650Q383 662 353 662Q342 662 326 660V702Q378 731 427 731Q452 731 464 718T476
665Q476 655 476 562T475 427V109Q475 75 484 62T517 49Q537 49 557 54V8Q522 -8 482 -8Q426 -8 415 49ZM408 90V389Q363 415 291 415Q211 415 165 365T118 226Q118 144 162 96T276 48Q311 48 349 60T408 90Z" />
<glyph unicode="e" glyph-name="e" horiz-adv-x="497" d="M465 62Q380 -14 271 -14Q163 -14 106 52T49 222Q49 343 112 408T276 473Q370 473 412 422T454 296Q454 253 442 242Q433 234 401 234H119V218Q119 143 160 96T282 49Q358 49 436 106L465 62ZM123 285L386
288V298Q386 416 266 416Q210 416 170 382T123 285Z" />
<glyph unicode="f" glyph-name="f" horiz-adv-x="324" d="M285 -1Q191 1 159 1Q126 1 34 -1V45Q98 49 107 62Q114 71 114 111V394H31V433Q70 442 87 453Q101 462 106 474T113 518Q121 641 178 689Q227 731 304 731Q346 731 376 720Q404 709 404 674Q404 652 397
594H354Q349 656 329 667Q314 675 283 675Q227 675 203 628Q180 582 180 495V450Q256 450 306 448V397Q240 394 180 394V126Q180 76 189 62Q195 54 212 51T285 45V-1Z" />
<glyph unicode="g" glyph-name="g" horiz-adv-x="513" d="M364 293Q364 416 240 416Q182 416 150 384T118 303Q118 181 242 181Q296 181 330 209T364 293ZM186 127Q150 103 150 81Q150 63 187 53Q213 46 284 34T369 19Q432 7 460 -24T488 -106Q488 -182 421 -229T246
-276Q139 -276 79 -237T18 -135Q18 -82 62 -45Q99 -14 134 2Q87 22 87 63T145 143Q50 189 50 294Q50 374 103 423T241 473Q311 473 352 450Q458 450 492 447V397Q435 394 402 394Q431 366 431 302Q431 217 377 171T238 124Q201 124 186 127ZM176 -15Q127 -43 107
-69T86 -125Q86 -162 128 -189T252 -217Q339 -217 377 -186T416 -115Q416 -87 392 -69T297 -38Q203 -23 176 -15Z" />
<glyph unicode="h" glyph-name="h" horiz-adv-x="583" d="M251 -1Q165 1 131 1Q73 1 29 -1V45Q94 51 101 61Q109 71 109 114V543Q109 638 96 651Q85 662 57 662Q52 662 26 660V702Q79 731 128 731Q153 731 165 717T177 662Q177 633 176 549T175 400Q249 472 356
472Q416 472 447 439Q478 404 478 307V114Q478 77 484 65Q492 51 560 45V-1Q476 1 447 1Q423 1 337 -1V45Q395 50 403 62Q412 73 412 116V294Q412 352 396 376Q375 405 319 405Q235 405 176 362V115Q176 70 184 61Q192 51 251 45V-1Z" />
<glyph unicode="i" glyph-name="i" horiz-adv-x="296" d="M185 653Q185 629 170 614T129 598Q106 598 92 613T78 651Q78 676 93 691T132 707Q185 707 185 653ZM258 -1Q172 1 137 1Q78 1 34 -1V45Q98 50 106 60T114 114V318Q114 374 100 388Q89 398 62 398Q48 398
34 396V438Q85 468 135 468Q159 468 171 455T184 401Q184 357 182 259T180 115Q180 73 189 61Q198 50 258 45V-1Z" />
<glyph unicode="j" glyph-name="j" horiz-adv-x="269" d="M175 653Q175 629 160 614T119 598Q96 598 82 613T68 651Q68 676 82 691T121 707Q175 707 175 653ZM-8 -233Q67 -199 88 -156Q106 -120 106 -12V320Q106 378 92 389Q80 400 53 400Q42 400 24 397V438Q75
468 124 468Q149 468 160 455T172 401Q172 357 173 202T175 6Q175 -69 170 -108T147 -178Q128 -211 89 -237T7 -275L-8 -233Z" />
<glyph unicode="k" glyph-name="k" horiz-adv-x="540" d="M263 -1Q177 1 142 1Q83 1 39 -1V45Q103 51 111 60Q119 70 119 113V574Q119 639 103 654Q93 664 64 664Q49 664 37 661V702Q90 731 138 731Q163 731 175 719T187 668Q187 656 187 600T186 502V115Q186
72 194 60Q201 50 263 45V-1ZM531 0Q511 -2 485 -2Q416 -2 369 37Q352 51 335 68T299 108T267 146T231 192T197 235Q252 277 314 339Q354 380 354 397Q354 406 341 410T288 417V460Q335 458 400 458T511 460V417Q480 415 464 407Q435 390 386 345Q371 332 331 293T277
243Q352 146 412 94Q442 70 465 58Q488 48 531 46V0Z" />
<glyph unicode="l" glyph-name="l" horiz-adv-x="300" d="M263 -1Q177 1 142 1Q83 1 39 -1V45Q103 50 111 61Q119 71 119 114V524Q119 637 103 654Q93 664 64 664Q49 664 37 661V702Q89 731 138 731Q163 731 175 719T187 668Q187 657 187 567T186 434V115Q186
72 194 61T263 45V-1Z" />
<glyph unicode="m" glyph-name="m" horiz-adv-x="880" d="M256 -1Q166 1 145 1Q78 1 34 -1V45Q99 52 106 61Q114 71 114 114V318Q114 374 100 388Q89 398 62 398Q48 398 34 396V438Q85 468 130 468Q152 468 165 454T179 400Q254 472 353 472Q443 472 466 398Q545
472 647 472Q709 472 737 439Q768 405 768 307V114Q768 76 775 65Q782 51 851 45V-1Q765 1 737 1Q713 1 627 -1V45Q685 50 693 62Q702 71 702 116V294Q702 355 687 376Q666 405 610 405Q535 405 471 361Q474 343 474 307V114Q474 77 480 65Q487 51 552 45V-1Q474
1 443 1Q418 1 332 -1V45Q390 50 398 62Q407 71 407 116V294Q407 355 392 376Q373 405 317 405Q241 405 180 362V115Q180 71 189 61Q196 51 256 45V-1Z" />
<glyph unicode="n" glyph-name="n" horiz-adv-x="595" d="M256 -1Q170 1 137 1Q78 1 34 -1V45Q98 50 106 61Q114 71 114 114V318Q114 374 100 388Q89 398 62 398Q48 398 34 396V438Q85 468 130 468Q152 468 165 454T179 400Q254 472 360 472Q425 472 452 439Q483
407 483 307V114Q483 75 490 65Q496 51 566 45V-1Q482 1 452 1Q426 1 342 -1V45Q400 50 407 61Q416 69 416 116V294Q416 355 401 376Q380 405 324 405Q241 405 180 362V115Q180 72 189 60Q197 50 256 45V-1Z" />
<glyph unicode="o" glyph-name="o" horiz-adv-x="540" d="M492 238Q492 115 430 51T270 -14Q162 -14 106 51T49 227Q49 342 111 407T278 473Q492 473 492 238ZM423 231Q423 415 274 415Q199 415 159 369T118 238Q118 45 272 45Q344 45 383 92T423 231Z" />
<glyph unicode="p" glyph-name="p" horiz-adv-x="564" d="M273 -262Q181 -260 148 -260Q117 -260 23 -262V-216Q86 -211 97 -197Q103 -189 103 -146V318Q103 374 89 388Q78 398 51 398Q38 398 22 396V438Q73 468 119 468Q142 468 154 455T169 401Q199 431 243
452T334 473Q424 473 470 409T516 235Q516 123 454 55T275 -13Q230 -13 170 1V-130Q170 -187 181 -198Q194 -211 273 -216V-262ZM170 66Q207 47 282 47Q361 47 402 97T444 230Q444 307 412 357T301 408Q232 408 170 360V66Z" />
<glyph unicode="q" glyph-name="q" horiz-adv-x="580" d="M554 -262Q460 -260 429 -260T304 -262V-216Q383 -211 396 -198Q407 -187 407 -130Q407 13 408 42Q356 -12 261 -12Q164 -12 107 52T49 216Q49 334 113 403T299 473Q394 473 477 446Q475 395 475 306V-146Q475
-189 481 -197Q492 -211 554 -216V-262ZM408 90V395Q363 416 291 416Q211 416 165 366T118 226Q118 144 162 97T276 49Q312 49 349 61T408 90Z" />
<glyph unicode="r" glyph-name="r" horiz-adv-x="391" d="M273 -1Q187 1 137 1Q78 1 34 -1V45Q98 50 106 60T114 114V318Q114 374 100 388Q89 398 62 398Q48 398 34 396V438Q85 468 130 468Q152 468 165 454T179 396Q200 427 235 449T307 471Q358 471 358 426Q358
400 348 352H311Q307 380 298 388T268 397Q219 397 180 355V115Q180 72 189 60Q196 51 273 45V-1Z" />
<glyph unicode="s" glyph-name="s" horiz-adv-x="448" d="M56 147H99Q105 87 131 67Q157 43 221 43Q270 43 297 62T325 109Q325 157 256 184L166 218Q66 256 66 340Q66 400 111 436T248 473Q309 473 348 457Q376 446 376 410Q376 387 369 333H328Q324 385 301
400Q281 416 229 416Q131 416 131 346Q131 324 147 309T206 277L295 243Q392 207 392 122Q392 59 343 23T212 -14Q146 -14 98 5Q54 23 54 75Q54 111 56 147Z" />
<glyph unicode="t" glyph-name="t" horiz-adv-x="341" d="M336 20Q279 -12 221 -12Q169 -12 140 16T111 115Q111 145 111 243T112 394H30V433Q59 440 82 450Q100 460 107 480Q114 501 125 559Q130 580 156 580Q179 580 179 557V450Q256 450 304 447V397Q242 394
178 394V204Q178 126 183 99Q193 49 243 49Q282 49 321 66L336 20Z" />
<glyph unicode="u" glyph-name="u" horiz-adv-x="582" d="M408 56Q339 -13 240 -13Q169 -13 134 28Q103 65 103 153V318Q103 376 90 388Q79 398 52 398Q48 398 37 397T23 396V438Q74 468 122 468Q147 468 159 454T171 400Q171 392 170 296T169 160Q169 103 190
78T267 52Q343 52 406 99V318Q406 376 393 388Q383 398 352 398Q335 398 321 396V438Q370 468 427 468Q451 468 462 453T474 396L473 284Q472 172 472 113Q472 76 481 63T516 49Q536 49 554 54V8Q521 -8 476 -8Q417 -8 408 56Z" />
<glyph unicode="v" glyph-name="v" horiz-adv-x="522" d="M517 414Q484 413 471 401Q459 390 439 344L299 17Q287 -11 263 -11Q235 -11 223 17L82 347Q64 390 49 402Q38 411 4 414V460Q70 458 120 458Q148 458 212 460V414Q176 412 169 410Q146 406 146 386Q146
370 157 344L271 68Q352 274 382 343Q393 370 393 389Q393 404 379 407Q360 412 325 414V460Q385 458 424 458Q459 458 517 460V414Z" />
<glyph unicode="w" glyph-name="w" horiz-adv-x="763" d="M753 414Q720 413 705 403Q692 395 677 346L574 17Q565 -11 538 -11Q509 -11 500 17Q405 292 384 364Q365 306 258 17Q248 -11 222 -11Q191 -11 183 18L84 348Q69 392 64 399Q53 413 11 414V460Q55 458
119 458Q174 458 223 460V414Q203 414 173 410Q148 405 148 387Q148 375 157 346L232 86Q263 180 355 434Q365 462 393 462Q418 462 427 434L545 85L620 343Q628 372 628 387Q628 403 612 407Q594 413 553 414V460Q593 458 659 458Q715 458 753 460V414Z" />
<glyph unicode="x" glyph-name="x" horiz-adv-x="556" d="M243 0Q145 2 126 2Q100 2 20 0V45Q69 47 85 60Q103 72 129 104L235 234L122 373Q102 399 86 406Q73 412 40 414V460Q91 458 146 458Q200 458 251 460V414Q198 414 198 394Q198 381 214 362L286 274L349
357Q366 380 366 394Q366 404 357 408T314 414V460Q390 458 421 458Q456 458 510 460V414Q477 413 460 403Q440 391 406 349L316 237L425 109Q452 75 471 61Q485 49 534 45V0Q505 0 465 0T412 1Q355 1 300 0V45Q338 47 350 52T363 68T335 114L266 196L209 122Q178
80 178 68Q178 47 243 45V0Z" />
<glyph unicode="y" glyph-name="y" horiz-adv-x="521" d="M39 -156H79Q86 -198 98 -207Q108 -214 126 -214Q162 -214 187 -169Q210 -128 259 -1Q235 -1 222 28L84 345Q64 389 49 402Q38 411 4 414V460Q70 458 120 458Q148 458 214 460V414Q182 412 170 410Q146
406 146 384Q146 369 159 340Q267 89 283 50L377 319Q393 362 393 390Q393 405 378 409Q369 411 324 414V460Q386 458 424 458Q459 458 517 460V414Q483 411 473 403Q460 391 436 325L316 0Q271 -124 244 -181Q220 -232 188 -253T110 -274Q85 -274 62 -265Q33 -253
33 -215Q33 -184 39 -156Z" />
<glyph unicode="z" glyph-name="z" horiz-adv-x="455" d="M14 0V25L322 411Q168 411 140 408Q111 405 102 389T88 325H44Q38 377 38 410Q38 435 46 447T83 459H419V429L113 50Q149 48 208 48Q313 48 341 58Q362 64 374 89Q387 117 394 148H436Q434 79 430 40Q427
0 374 0H14Z" />
<glyph unicode="{" glyph-name="braceleft" horiz-adv-x="302" d="M295 -182Q194 -182 154 -144T113 -15V131Q113 203 94 236T21 274V313Q78 318 94 349T111 467V590Q111 679 149 725T295 772V728Q227 728 201 699T175 587V435Q175 362 159 335T88 294Q140 283
157 255T175 153V-4Q175 -78 202 -108T295 -139V-182Z" />
<glyph unicode="|" glyph-name="bar" horiz-adv-x="259" d="M158 -183H100V769H158V-183Z" />
<glyph unicode="}" glyph-name="braceright" horiz-adv-x="302" d="M17 772Q117 772 158 733T199 603V457Q199 385 218 352T291 315V276Q234 270 218 239T201 122V-2Q201 -91 162 -136T17 -182V-140Q85 -140 111 -111T138 2V154Q138 226 154 253T224 295Q172 306
154 334T136 436V592Q136 666 110 696T17 727V772Z" />
<glyph unicode="~" glyph-name="asciitilde" horiz-adv-x="585" d="M103 230L58 272Q121 365 197 365Q239 365 308 320Q359 287 387 287Q437 287 485 359L527 319Q462 224 387 224Q344 224 292 258Q251 284 233 291T197 299Q143 299 103 230Z" />
</font>
</defs>
</svg>
