<svg width="37px" height="37px" viewBox="0 0 37 37" version="1.1" xmlns="http://www.w3.org/2000/svg" xmlns:xlink="http://www.w3.org/1999/xlink">
    <!-- Generator: Sketch 49.3 (51167) - http://www.bohemiancoding.com/sketch -->
    <desc>Created with Sketch.</desc>
    <defs></defs>
    <g id="wireframe" stroke="none" stroke-width="1" fill="none" fill-rule="evenodd">
        <g id="TSOMI---home-v1" transform="translate(-22.000000, -13.000000)">
            <g id="Group-2" transform="translate(22.000000, 13.000000)">
                <g id="temp-logo">
                    <circle id="Oval-4" fill="#58D8A2" cx="18.5" cy="18.5" r="18.5"></circle>
                    <circle id="Oval-4" fill="#51D19B" cx="18.5" cy="18.5" r="14.06"></circle>
                    <circle id="Oval-4" fill="#4CCB95" cx="18.5" cy="18.5" r="8.51"></circle>
                    <path d="M2.47497061,27.75 C0.900897145,25.0288964 0,21.8696561 0,18.5 C0,15.1303439 0.900897145,11.9711036 2.47497061,9.25 C5.67370775,14.7796627 11.6523882,18.5 18.5,18.5 C25.3476118,18.5 31.3262922,14.7796627 34.5250294,9.25 C36.0991029,11.9711036 37,15.1303439 37,18.5 C37,21.8696561 36.0991029,25.0288964 34.5250294,27.75 C31.3262922,22.2203373 25.3476118,18.5 18.5,18.5 C11.6523882,18.5 5.67370775,22.2203373 2.47497061,27.75 Z" id="Combined-Shape" fill="#FFFFFF" opacity="0.351392663"></path>
                    <path d="M0.8325,12.9377151 C1.2407607,11.6410439 1.7879715,10.4059858 2.45667318,9.25 C5.65541032,14.7796627 11.6340908,18.5 18.4817026,18.5 C11.6340908,18.5 5.65541032,22.2203373 2.45667318,27.75 C1.7879715,26.5940142 1.2407607,25.3589561 0.8325,24.0622849 C3.68313713,20.6619962 7.96243922,18.5 12.7467026,18.5 C7.96243922,18.5 3.68313713,16.3380038 0.8325,12.9377151 Z" id="Combined-Shape" fill="#FFFFFF" opacity="0.351392663"></path>
                    <path d="M18.8383657,12.9405154 C19.2467201,11.6428221 19.7942373,10.4068179 20.4634203,9.25 C23.6621575,14.7796627 29.6408379,18.5 36.4884497,18.5 C29.6408379,18.5 23.6621575,22.2203373 20.4634203,27.75 C19.7952013,26.5948486 19.2482979,25.3607391 18.8401314,24.0650927 C20.3191479,22.3060181 22.1847916,20.8781485 24.2988059,19.9092975 C24.7743778,19.6913432 18.5,20.1819661 18.5,20.0332959 C18.5,19.7784038 18.6003589,17.8862842 19.0419019,16.948457 C19.1015028,16.821866 24.8274269,17.3475804 24.3772568,17.1452927 C22.2221254,16.1768665 20.3345226,14.7303419 18.8383657,12.9405154 Z" id="Combined-Shape" fill="#FFFFFF" opacity="0.351392663" transform="translate(27.494225, 18.500000) scale(-1, 1) translate(-27.494225, -18.500000) "></path>
                    <circle id="Oval-4-Copy-3" fill="#FFFFFF" cx="18.54625" cy="18.54625" r="2.72875"></circle>
                    <path d="M33.812338,8.55683158 C34.9422948,9.97575802 35.8680655,11.5645188 36.5451879,13.2786517 C36.1269147,13.5393715 35.6329229,13.69 35.10375,13.69 C33.596703,13.69 32.375,12.468297 32.375,10.96125 C32.375,9.92139485 32.9566446,9.01739008 33.812338,8.55683158 Z" id="Combined-Shape" fill="#FFFFFF" transform="translate(34.460094, 11.123416) rotate(6.000000) translate(-34.460094, -11.123416) "></path>
                    <path d="M36.8084183,15.827721 C36.9346567,16.7002534 37,17.5924958 37,18.5 C37,19.4391844 36.9300149,20.362023 36.7949752,21.263585 C35.4057127,21.1367476 34.3175,19.9685816 34.3175,18.54625 C34.3175,17.1193339 35.4127391,15.9482245 36.8084183,15.827721 Z" id="Combined-Shape" fill="#FFFFFF"></path>
                    <path d="M36.5156351,23.7956871 C35.8308956,25.5072564 34.8978397,27.0926517 33.7610133,28.5073272 C32.93347,28.0386703 32.375,27.150179 32.375,26.13125 C32.375,24.624203 33.596703,23.4025 35.10375,23.4025 C35.6205126,23.4025 36.1037248,23.5461462 36.5156351,23.7956871 Z" id="Combined-Shape" fill="#FFFFFF" transform="translate(34.445318, 25.954914) rotate(-6.000000) translate(-34.445318, -25.954914) "></path>
                </g>
            </g>
        </g>
    </g>
</svg>
