<?xml version="1.0" encoding="UTF-8"?>
<svg width="18px" height="18px" viewBox="0 0 18 18" version="1.1" xmlns="http://www.w3.org/2000/svg" xmlns:xlink="http://www.w3.org/1999/xlink">
    <!-- Generator: Sketch 50.2 (55047) - http://www.bohemiancoding.com/sketch -->
    <title>Page 1</title>
    <desc>Created with Sketch.</desc>
    <defs></defs>
    <g id="current" stroke="none" stroke-width="1" fill="none" fill-rule="evenodd">
        <g id="TSOMI---search---no-results" transform="translate(-900.000000, -148.000000)" fill="#5084C8">
            <g id="Group-9" transform="translate(862.000000, 147.000000)">
                <g id="Group-10">
                    <path d="M47,1 C42.025475,1 38,5.023675 38,10 C38,14.974525 42.025475,19 47,19 C51.976325,19 56,14.974525 56,10 C56,5.022775 51.977225,1 47,1 Z M43.371131,7.00060322 C43.3863784,6.99979893 43.4008226,6.99979893 43.41607,7.00060322 C43.526812,6.99979893 43.6335438,7.04318937 43.7113832,7.12273784 L46.5040706,9.91244685 L49.290184,7.12273784 C49.3648146,7.04640447 49.4659278,7.00301403 49.5726576,7.00060322 C49.7427826,6.99337079 49.9000803,7.09300796 49.9666824,7.24968585 C50.0340899,7.4071742 49.9971773,7.58876241 49.8743968,7.70769839 L47.0817094,10.5039898 L49.8743968,13.2936988 C49.9522383,13.3708365 49.9955708,13.4760975 49.9955708,13.5861842 C49.9955708,13.6954626 49.9522362,13.8007298 49.8743968,13.8786697 C49.7973586,13.9558073 49.6922332,14 49.5822884,14 C49.4723435,14 49.3680194,13.9558073 49.2901799,13.8786697 L46.5040665,11.0823782 L43.7113791,13.8786697 C43.5500796,14.0401774 43.28847,14.0401774 43.1271623,13.8786697 C42.9658545,13.7171619 42.9658627,13.4552148 43.1271623,13.2936988 L45.9132757,10.5039898 L43.1271623,7.70769839 C43.0108016,7.59600924 42.9698769,7.42726702 43.0228402,7.2753984 C43.0750022,7.1235339 43.2114236,7.01586619 43.3711146,7.00060322 L43.371131,7.00060322 Z" id="Page-1"></path>
                </g>
            </g>
        </g>
    </g>
</svg>