<?xml version="1.0" encoding="UTF-8"?>
<svg width="77px" height="77px" viewBox="0 0 77 77" version="1.1" xmlns="http://www.w3.org/2000/svg" xmlns:xlink="http://www.w3.org/1999/xlink">
    <!-- Generator: Sketch 50.2 (55047) - http://www.bohemiancoding.com/sketch -->
    <title>Layout/Bubble2</title>
    <desc>Created with Sketch.</desc>
    <defs></defs>
    <g id="Layout/Bubble2" stroke="none" stroke-width="1" fill="none" fill-rule="evenodd">
        <g id="Group">
            <path d="M77,38.5 C77,59.7630856 59.7630856,77 38.5,77 C17.2369144,77 0,59.7630856 0,38.5 C0,17.2369144 17.2369144,0 38.5,0 C59.7630856,0 77,17.2369144 77,38.5" id="Fill-1" fill="#303030"></path>
            <path d="M61.9254015,53.7382356 C61.7866322,48.6860514 59.5275542,43.4637366 55.7398752,42.2045572 C51.8286675,40.9043118 46.2883247,38.6291489 45.3105228,38.3038209 C44.6567832,38.0867578 43.7145425,37.5723662 43.3549189,35.8019951 L43.3549189,33.966025 C45.9744227,31.8119269 47.2658592,27.8687913 47.2658592,23.3517983 C47.2658592,16.5303097 47.2658592,11 38.303076,11 C29.3405601,11 29.3405601,16.5303097 29.3405601,23.3517983 C29.3405601,28.1346536 30.7846696,32.2796526 33.7247598,34.3318857 C33.6811771,37.3209036 32.4298474,38.0352919 31.6218306,38.3038209 C30.6440286,38.6291489 25.1036858,40.9043118 21.1924781,42.2045572 C17.2916982,43.5010694 15.0125668,49.0012462 15.0005348,54.1902282 C15.0005348,54.1939615 15,54.1976947 15,54.2011613 C15,54.2032946 15.0005348,54.2054279 15.0005348,54.2075612 C15.0005348,54.2152944 15,54.2232943 15,54.2312942 L15.0016043,54.2312942 C15.0673793,57.4200421 25.561972,60 38.5001337,60 C51.4786695,60 62,57.4037757 62,54.2011613 C62,54.0451639 61.9743317,53.8907664 61.9254015,53.7382356" id="Fill-3" fill="#606060"></path>
        </g>
    </g>
</svg>