<?xml version="1.0" encoding="UTF-8"?>
<svg width="75px" height="75px" viewBox="0 0 75 75" version="1.1" xmlns="http://www.w3.org/2000/svg" xmlns:xlink="http://www.w3.org/1999/xlink">
    <!-- Generator: Sketch 50.2 (55047) - http://www.bohemiancoding.com/sketch -->
    <title>new-avatar</title>
    <desc>Created with Sketch.</desc>
    <defs></defs>
    <g id="new-avatar" stroke="none" stroke-width="1" fill="none" fill-rule="evenodd">
        <g id="Group">
            <path d="M75,37.5 C75,58.2107977 58.2107977,75 37.5,75 C16.7892023,75 0,58.2107977 0,37.5 C0,16.7892023 16.7892023,0 37.5,0 C58.2107977,0 75,16.7892023 75,37.5" id="Fill-1" fill="#303030"></path>
            <path d="M41.8774319,37.9237646 L41.8774319,37.9056712 C41.8774319,37.4848541 42.1035992,37.0975973 42.4692607,36.8898152 C45.2743191,35.2938035 47.8374514,32.4166634 48.1990272,29.0545039 C48.2407588,28.6646206 48.4861868,27.7392315 48.8535992,27.6017802 C49.5729572,27.3324222 50.0851167,26.6402043 50.0851167,25.8268774 L50.0851167,24.6595623 C50.0851167,23.7534339 49.4495136,22.9978891 48.6,22.8096595 C48.4050584,22.7667607 48.2611868,22.6030447 48.2611868,22.403142 L48.2611868,21.0846595 C48.2611868,15.4033366 43.6555447,10.7976946 37.9742218,10.7976946 C32.2928988,10.7976946 27.6872568,15.4033366 27.6872568,21.0846595 L27.6872568,27.9426362 C27.6872568,31.7737646 30.6571984,35.1149125 33.7634241,36.8851459 C34.1317121,37.0952626 34.3628405,37.4822276 34.3628405,37.9062549 L34.3628405,37.9237646 C34.3628405,38.4948735 33.9481518,38.9755156 33.3855058,39.0732782 C26.4577821,40.2808658 20.0775292,45.6289202 18.6431907,52.4766829 C24.0207198,56.5389397 30.7155642,58.9494455 37.9742218,58.9494455 C45.2328794,58.9494455 51.9277237,56.5389397 57.3052529,52.4766829 C55.8709144,45.6289202 49.7824903,40.2808658 42.8547665,39.0732782 C42.2921206,38.9755156 41.8774319,38.4948735 41.8774319,37.9237646" id="Fill-3" fill="#606060"></path>
            <path d="M31.6634241,23.6381323 C31.6634241,24.1216926 31.2714981,24.5136187 30.7879377,24.5136187 C30.3043774,24.5136187 29.9124514,24.1216926 29.9124514,23.6381323 C29.9124514,23.154572 30.3043774,22.7626459 30.7879377,22.7626459 C31.2714981,22.7626459 31.6634241,23.154572 31.6634241,23.6381323" id="Fill-5" fill="#303030"></path>
            <path d="M40.1264591,23.6381323 C40.1264591,24.1216926 39.7345331,24.5136187 39.2509728,24.5136187 C38.7674125,24.5136187 38.3754864,24.1216926 38.3754864,23.6381323 C38.3754864,23.154572 38.7674125,22.7626459 39.2509728,22.7626459 C39.7345331,22.7626459 40.1264591,23.154572 40.1264591,23.6381323" id="Fill-7" fill="#303030"></path>
            <polyline id="Stroke-9" stroke="#303030" stroke-linecap="round" stroke-linejoin="round" points="33.6852724 23.7840467 33.6908171 25.1839494 35.3113424 25.1792802"></polyline>
            <path d="M39.1184533,27.591216 C38.4055156,28.3041537 37.4205934,28.745107 36.3326556,28.745107 C35.8094066,28.745107 35.3097957,28.6429669 34.8527918,28.4579475" id="Stroke-11" stroke="#303030" stroke-linecap="round" stroke-linejoin="round"></path>
        </g>
    </g>
</svg>