<?xml version="1.0" encoding="UTF-8"?>
<svg width="31px" height="31px" viewBox="0 0 31 31" version="1.1" xmlns="http://www.w3.org/2000/svg" xmlns:xlink="http://www.w3.org/1999/xlink">
    <!-- Generator: Sketch 50.2 (55047) - http://www.bohemiancoding.com/sketch -->
    <title>wiki-open</title>
    <desc>Created with Sketch.</desc>
    <defs></defs>
    <g id="current" stroke="none" stroke-width="1" fill="none" fill-rule="evenodd">
        <g id="TSOMI/Home/Collapsed" transform="translate(-1348.000000, -423.000000)">
            <g id="wiki-open" transform="translate(1348.000000, 423.000000)">
                <circle id="Oval" fill="#191919" cx="15.5" cy="15.5" r="15.5"></circle>
                <g id="Group-7" transform="translate(5.000000, 10.000000)">
                    <polyline id="Path-2" stroke="#FFFFFF" stroke-linecap="round" stroke-linejoin="round" transform="translate(1.500000, 5.500000) scale(-1, 1) translate(-1.500000, -5.500000) " points="0 3 3 5.5 0 8"></polyline>
                    <g id="Page-1" transform="translate(5.000000, 0.000000)" fill="#FFFFFF">
                        <path d="M0,0.01370305 C0.287958984,0.011500487 0.57590332,0.00818860398 0.863862305,0.00733651757 C1.83306152,0.004410485 2.80224609,0.00238477014 3.77144531,2.14361361e-05 C3.79064941,-2.67951701e-05 3.80986816,2.14361361e-05 3.84436523,2.14361361e-05 C3.84436523,0.129924421 3.84445312,0.254538039 3.84435059,0.37913558 C3.84418945,0.573411281 3.84383789,0.571771416 3.67327148,0.609874148 C3.48076172,0.652864319 3.29537109,0.718169508 3.13149902,0.841738114 C2.86864746,1.03995271 2.80258301,1.3135046 2.92921875,1.63409809 C3.67713867,3.52743409 4.42303711,5.42175079 5.17032715,7.31539226 C5.33121094,7.72307541 5.49502441,8.12940809 5.65768066,8.53625523 C5.66818359,8.56252522 5.68040039,8.58797527 5.69789063,8.62754102 C5.7169043,8.59072445 5.73120117,8.56437408 5.74437012,8.53738063 C6.26453613,7.47031121 6.78484863,6.40333826 7.30338867,5.33532029 C7.31831543,5.30456479 7.32855469,5.25580294 7.31699707,5.22704101 C6.93786621,4.28437621 6.55962891,3.34121302 6.17241211,2.40251926 C5.99947266,1.98329274 5.79997559,1.57724946 5.62686035,1.15810333 C5.49959473,0.849985667 5.27852051,0.696192109 4.99157227,0.642735745 C4.79980957,0.607012424 4.60415039,0.596224689 4.41013184,0.575227993 C4.36700684,0.570565634 4.32350098,0.569874318 4.27785645,0.567221596 L4.27785645,0.0233332341 L7.9031543,0.0233332341 L7.9031543,0.560871141 C7.83257813,0.575983617 7.7550293,0.585887112 7.6813623,0.610067073 C7.59322266,0.639021934 7.50442383,0.671690606 7.42299316,0.717815811 C7.25736328,0.811657856 7.20502441,1.05056359 7.27795898,1.22340852 C7.60284668,1.99334093 7.9176709,2.76838587 8.23625977,3.54153371 C8.24616211,3.56556897 8.25738281,3.58894508 8.2711084,3.61960411 C8.28133301,3.60487749 8.28994629,3.59606724 8.29463379,3.58521519 C8.60012695,2.87626322 8.90711426,2.16808296 9.20853516,1.45707312 C9.25398926,1.34983885 9.28797363,1.23133453 9.30150879,1.114454 C9.32314453,0.927412991 9.23852051,0.790420004 9.08884277,0.702108483 C8.95050293,0.620501113 8.7988623,0.593539812 8.64537598,0.577044706 C8.5485498,0.566626744 8.45126953,0.561176606 8.34539063,0.552800436 L8.34539063,0.0266933484 L11.5779932,0.0266933484 C11.5779932,0.123204192 11.5792383,0.229023678 11.5775537,0.334762778 C11.5764111,0.406161188 11.5941211,0.498363368 11.5607959,0.542575399 C11.5312354,0.581755297 11.442832,0.566948286 11.3805615,0.57707686 C11.0847217,0.625179549 10.801084,0.71161005 10.5684814,0.930001404 C10.4898779,1.0037953 10.417251,1.09188174 10.3614258,1.18720288 C9.93430664,1.91655669 9.59116699,2.69500998 9.26068359,3.48053718 C9.11345215,3.83050354 8.96644043,4.18061459 8.82241699,4.53218866 C8.80838379,4.56644896 8.80274414,4.61802431 8.81583984,4.65056436 C9.29878418,5.85018948 9.78437988,7.04852844 10.2697559,8.24697993 C10.2746338,8.25902168 10.2811084,8.27030781 10.29104,8.29045242 C10.3044141,8.26087055 10.3156055,8.23861984 10.3247754,8.21540451 C11.2259619,5.93401549 12.1268115,3.65248179 13.0290527,1.37159117 C13.049707,1.31938882 13.0484473,1.27932468 13.0236182,1.22993582 C12.8981104,0.98045135 12.7030957,0.821866816 12.4673438,0.720902615 C12.3270117,0.660806407 12.1813037,0.615822676 12.0247266,0.559247354 L12.0247266,0.0106805548 C12.0466113,0.0106805548 12.0770508,0.0104715525 12.1074902,0.0106966319 C13.0400391,0.0180599446 13.9726025,0.0254714887 14.9051514,0.0326579533 C14.9367627,0.0328991098 14.9683887,0.0307930095 15,0.029780152 L15,0.608555826 C14.7815771,0.642333817 14.590166,0.74323371 14.4232031,0.898168742 C14.2457666,1.06281434 14.1088477,1.26016077 14.0152002,1.49694433 C12.7723682,4.63955155 11.5273535,7.78109767 10.2843311,10.9236084 C10.2621973,10.9795407 10.2352734,10.997338 10.1811328,10.9962769 C10.0200879,10.993174 9.85882324,10.9932705 9.69788086,10.9994763 C9.63389648,11.0019682 9.60594727,10.9778686 9.58119141,10.9136406 C9.00172852,9.41004573 8.41990723,7.90757623 7.83842285,6.40492989 C7.8290918,6.38083031 7.81847168,6.35730951 7.80435059,6.32382091 C7.78798828,6.35523557 7.77566895,6.37692358 7.76503418,6.39956014 C7.05643066,7.90807462 6.34763672,9.41647657 5.64079102,10.9259878 C5.61446777,10.9822095 5.58572754,11.0013251 5.52915527,10.9998621 C5.36081543,10.9955213 5.19225586,10.9953445 5.02391602,10.9999104 C4.96445801,11.0015181 4.93286133,10.9817432 4.90875,10.9210843 C4.49456543,9.87858071 4.07203125,8.83999992 3.66457031,7.79432913 C3.14012695,6.44843453 2.6343457,5.09374576 2.10634277,3.74957141 C1.88833008,3.19455769 1.65120117,2.64652144 1.39054688,2.11432113 C1.11017578,1.54189591 0.707871094,1.0794863 0.198955078,0.737638878 C0.137607422,0.696417189 0.0665478516,0.672590923 0,0.64071003 L0,0.01370305 Z" id="Fill-1"></path>
                    </g>
                </g>
            </g>
        </g>
    </g>
</svg>